<svg xmlns="http://www.w3.org/2000/svg" version="1.1" xmlns:xlink="http://www.w3.org/1999/xlink" xmlns:svgjs="http://svgjs.com/svgjs" width="1413" height="2000" preserveAspectRatio="none" viewBox="0 0 1413 2000"><g mask="url(&quot;#SvgjsMask1069&quot;)" fill="none"><rect width="1413" height="2000" x="0" y="0" fill="#0e2a47"></rect><path d="M 0,173 C 94.2,256.6 282.6,593 471,591 C 659.4,589 753.6,156.6 942,163 C 1130.4,169.4 1318.8,531 1413,623L1413 2000L0 2000z" fill="#559bc5"></path><path d="M 0,897 C 70.8,967.2 212.4,1248.6 354,1248 C 495.6,1247.4 566.4,919 708,894 C 849.6,869 921,1163.2 1062,1123 C 1203,1082.8 1342.8,779 1413,693L1413 2000L0 2000z" fill="#184a7e"></path><path d="M 0,1765 C 94.2,1714.2 282.6,1505.8 471,1511 C 659.4,1516.2 753.6,1810.6 942,1791 C 1130.4,1771.4 1318.8,1488.6 1413,1413L1413 2000L0 2000z" fill="#2264ab"></path></g><defs><mask id="SvgjsMask1069"><rect width="1413" height="2000" fill="#ffffff"></rect></mask></defs></svg>